<?xml version="1.0" standalone="no"?><!DOCTYPE svg PUBLIC "-//W3C//DTD SVG 1.1//EN" "http://www.w3.org/Graphics/SVG/1.1/DTD/svg11.dtd"><svg t="1711805466439" class="icon" viewBox="0 0 1024 1024" version="1.1" xmlns="http://www.w3.org/2000/svg" p-id="2084" xmlns:xlink="http://www.w3.org/1999/xlink" width="200" height="200"><path d="M343.594667 137.258667q20.608-41.258667 66.773333-41.258667h203.264q46.165333 0 66.773333 41.258667l40.405334 80.853333q2.986667 5.888 9.557333 5.888H810.666667q66.261333 0 113.152 46.848Q970.666667 317.738667 970.666667 384v384q0 66.261333-46.848 113.152Q876.928 928 810.666667 928H213.333333q-66.261333 0-113.152-46.848Q53.333333 834.261333 53.333333 768V384q0-66.261333 46.848-113.152Q147.072 224 213.333333 224h80.298667q6.570667 0 9.557333-5.888l40.405334-80.853333z m57.216 28.629333l-40.405334 80.853333q-20.608 41.258667-66.773333 41.258667H213.333333q-39.765333 0-67.882666 28.117333Q117.333333 344.234667 117.333333 384v384q0 39.765333 28.117334 67.882667 28.117333 28.117333 67.882666 28.117333h597.333334q39.765333 0 67.882666-28.117333 28.117333-28.117333 28.117334-67.882667V384q0-39.765333-28.117334-67.882667Q850.432 288 810.666667 288h-80.298667q-46.122667 0-66.773333-41.258667l-40.405334-80.853333q-2.986667-5.888-9.557333-5.888H410.368q-6.570667 0-9.557333 5.888z" p-id="2085"></path><path d="M309.333333 554.666667q0-83.968 59.349334-143.317334T512 352q83.968 0 143.317333 59.349333T714.666667 554.666667q0 83.968-59.349334 143.317333T512 757.333333q-83.968 0-143.317333-59.349333T309.333333 554.666667z m64 0q0 57.429333 40.618667 98.048T512 693.333333q57.429333 0 98.048-40.618666T650.666667 554.666667q0-57.429333-40.618667-98.048T512 416q-57.429333 0-98.048 40.618667T373.333333 554.666667z" p-id="2086"></path><path d="M128.597333 122.624h85.333334a32 32 0 0 1 0 64h-85.333334a32 32 0 0 1 0-64z" p-id="2087"></path></svg>