<?xml version="1.0" standalone="no"?><!DOCTYPE svg PUBLIC "-//W3C//DTD SVG 1.1//EN" "http://www.w3.org/Graphics/SVG/1.1/DTD/svg11.dtd"><svg t="1711807253283" class="icon" viewBox="0 0 1024 1024" version="1.1" xmlns="http://www.w3.org/2000/svg" p-id="2717" xmlns:xlink="http://www.w3.org/1999/xlink" width="200" height="200"><path d="M53.333333 512c0 253.013333 205.653333 458.666667 458.666667 458.666667S970.666667 765.013333 970.666667 512 765.013333 53.333333 512 53.333333 53.333333 258.986667 53.333333 512z m64 0c0-217.6 177.066667-394.666667 394.666667-394.666667S906.666667 294.4 906.666667 512 729.6 906.666667 512 906.666667 117.333333 729.6 117.333333 512z m533.333334 168.618667c-8.106667 0-16.213333-2.986667-22.613334-9.386667L512 556.885333l-116.053333 114.346667c-6.4 6.4-14.506667 9.386667-22.613334 9.386667s-16.213333-2.986667-22.613333-9.386667a32.170667 32.170667 0 0 1 0-45.226667L466.432 512 350.72 397.866667a32.170667 32.170667 0 0 1 0-45.226667c12.373333-12.373333 32.853333-12.373333 45.226667 0L512 467.072l116.053333-114.432c12.373333-12.373333 32.853333-12.373333 45.226667 0 12.373333 12.373333 12.373333 32.853333 0 45.226667L557.610667 512l115.712 114.048c12.373333 12.373333 12.373333 32.853333 0 45.226667-6.4 6.4-14.506667 9.386667-22.613334 9.386666z" p-id="2718"></path></svg>