<?xml version="1.0" standalone="no"?><!DOCTYPE svg PUBLIC "-//W3C//DTD SVG 1.1//EN" "http://www.w3.org/Graphics/SVG/1.1/DTD/svg11.dtd"><svg t="1711807269144" class="icon" viewBox="0 0 1024 1024" version="1.1" xmlns="http://www.w3.org/2000/svg" p-id="2877" xmlns:xlink="http://www.w3.org/1999/xlink" width="200" height="200"><path d="M160.512 895.530667a128 128 0 0 1-128-128V207.530667a128 128 0 0 1 128-128h702.976a128 128 0 0 1 128 128v560a128 128 0 0 1-128 128H811.946667a85.333333 85.333333 0 0 0-65.792 30.976l-43.434667 52.608a42.666667 42.666667 0 0 1-64 2.005333l-54.954667-58.624a85.333333 85.333333 0 0 0-62.293333-26.965333h-360.96zM746.666667 356.650667h-469.333334a32 32 0 1 0 0 64h469.333334a32 32 0 0 0 0-64z m-120.064 213.333333H277.333333a32 32 0 0 0 0 64h349.269334a32 32 0 0 0 0-64z" p-id="2878"></path></svg>