<?xml version="1.0" standalone="no"?><!DOCTYPE svg PUBLIC "-//W3C//DTD SVG 1.1//EN" "http://www.w3.org/Graphics/SVG/1.1/DTD/svg11.dtd"><svg t="1711808300574" class="icon" viewBox="0 0 1024 1024" version="1.1" xmlns="http://www.w3.org/2000/svg" p-id="3035" xmlns:xlink="http://www.w3.org/1999/xlink" width="200" height="200"><path d="M843.52 480h-172.373333c-85.76 0-127.146667-37.973333-127.146667-116.48V169.813333c0-78.506667 41.813333-116.48 127.146667-116.48h172.373333c85.76 0 127.146667 37.973333 127.146667 116.48v193.28c0 78.933333-41.813333 116.906667-127.146667 116.906667z m-172.373333-362.666667c-57.173333 0-63.146667 16.213333-63.146667 52.48v193.28c0 36.693333 5.973333 52.48 63.146667 52.48h172.373333c57.173333 0 63.146667-16.213333 63.146667-52.48V169.813333c0-36.693333-5.973333-52.48-63.146667-52.48h-172.373333zM843.52 970.666667h-172.373333c-85.76 0-127.146667-41.813333-127.146667-127.146667v-172.373333c0-85.76 41.813333-127.146667 127.146667-127.146667h172.373333c85.76 0 127.146667 41.813333 127.146667 127.146667v172.373333c0 85.333333-41.813333 127.146667-127.146667 127.146667z m-172.373333-362.666667c-50.346667 0-63.146667 12.8-63.146667 63.146667v172.373333c0 50.346667 12.8 63.146667 63.146667 63.146667h172.373333c50.346667 0 63.146667-12.8 63.146667-63.146667v-172.373333c0-50.346667-12.8-63.146667-63.146667-63.146667h-172.373333zM352.853333 480H180.48c-85.76 0-127.146667-37.973333-127.146667-116.48V169.813333c0-78.506667 41.813333-116.48 127.146667-116.48h172.373333c85.76 0 127.146667 37.973333 127.146667 116.48v193.28c0 78.933333-41.813333 116.906667-127.146667 116.906667z m-172.373333-362.666667c-57.173333 0-63.146667 16.213333-63.146667 52.48v193.28c0 36.693333 5.973333 52.48 63.146667 52.48h172.373333c57.173333 0 63.146667-16.213333 63.146667-52.48V169.813333c0-36.693333-5.973333-52.48-63.146667-52.48H180.48zM352.853333 970.666667H180.48c-85.76 0-127.146667-41.813333-127.146667-127.146667v-172.373333c0-85.76 41.813333-127.146667 127.146667-127.146667h172.373333c85.76 0 127.146667 41.813333 127.146667 127.146667v172.373333c0 85.333333-41.813333 127.146667-127.146667 127.146667z m-172.373333-362.666667c-50.346667 0-63.146667 12.8-63.146667 63.146667v172.373333c0 50.346667 12.8 63.146667 63.146667 63.146667h172.373333c50.346667 0 63.146667-12.8 63.146667-63.146667v-172.373333c0-50.346667-12.8-63.146667-63.146667-63.146667H180.48z" p-id="3036"></path></svg>